<svg width="23" height="25" viewBox="0 0 23 25"
xmlns="http://www.w3.org/2000/svg">
<path d="M20.4444 2.5H19.1667V0H16.6111V2.5H6.38889V0H3.83333V2.5H2.55556C1.13722 2.5 0.0127778 3.625 0.0127778 5L0 22.5C0 23.163 0.269245 23.7989 0.748505 24.2678C1.22776 24.7366 1.87778 25 2.55556 25H20.4444C21.85 25 23 23.875 23 22.5V5C23 3.625 21.85 2.5 20.4444 2.5ZM20.4444 22.5H2.55556V10H20.4444V22.5ZM7.66667 15H5.11111V12.5H7.66667V15ZM12.7778 15H10.2222V12.5H12.7778V15ZM17.8889 15H15.3333V12.5H17.8889V15ZM7.66667 20H5.11111V17.5H7.66667V20ZM12.7778 20H10.2222V17.5H12.7778V20ZM17.8889 20H15.3333V17.5H17.8889V20Z" />
</svg>
