<svg width="23" height="20" viewBox="0 0 23 20" xmlns="http://www.w3.org/2000/svg">
<path d="M1.87296e-06 18.8916V2.14983C1.87296e-06 1.55863 0.225402 1.05234 0.676202 0.630976C1.127 0.20961 1.66827 -0.000714784 2.3 1.82498e-06H20.7C21.3325 1.82498e-06 21.8742 0.210685 22.325 0.632051C22.7757 1.05342 23.0008 1.55934 23 2.14983V15.0488C23 15.64 22.7746 16.1463 22.3238 16.5676C21.873 16.989 21.3317 17.1993 20.7 17.1986H4.6L1.955 19.6709C1.59084 20.0113 1.17377 20.0876 0.703802 19.8999C0.233835 19.7121 -0.000764794 19.376 1.87296e-06 18.8916Z" />
</svg>
