<svg width="14" height="11" viewBox="0 0 14 11" fill="none" xmlns="http://www.w3.org/2000/svg">
<path d="M12.8122 0H1.40642C1.20017 0 1.00237 0.0821782 0.856526 0.228457C0.710686 0.374735 0.628754 0.573131 0.628754 0.78V10.14C0.628754 10.3469 0.710686 10.5453 0.856526 10.6915C1.00237 10.8378 1.20017 10.92 1.40642 10.92H12.8122C13.0184 10.92 13.2162 10.8378 13.3621 10.6915C13.5079 10.5453 13.5898 10.3469 13.5898 10.14V0.78C13.5898 0.573131 13.5079 0.374735 13.3621 0.228457C13.2162 0.0821782 13.0184 0 12.8122 0ZM1.40642 0.52H12.8122C12.8809 0.52 12.9469 0.547393 12.9955 0.596152C13.0441 0.644912 13.0714 0.711044 13.0714 0.78V8.086L10.9399 5.94815C10.8677 5.87543 10.7818 5.81774 10.6873 5.77837C10.5928 5.739 10.4914 5.71873 10.3891 5.71873C10.2867 5.71873 10.1854 5.739 10.0909 5.77837C9.99634 5.81774 9.9105 5.87543 9.83825 5.94815L8.35874 7.4321L5.32455 4.38815C5.2523 4.31543 5.16646 4.25774 5.07193 4.21837C4.9774 4.179 4.87606 4.15873 4.77371 4.15873C4.67135 4.15873 4.57001 4.179 4.47548 4.21837C4.38096 4.25774 4.29511 4.31543 4.22286 4.38815L1.1472 7.475V0.78C1.1472 0.711044 1.17451 0.644912 1.22312 0.596152C1.27173 0.547393 1.33767 0.52 1.40642 0.52ZM1.1472 10.14V8.2121L4.5929 4.75605C4.61697 4.73188 4.64556 4.7127 4.67703 4.69961C4.7085 4.68653 4.74223 4.6798 4.7763 4.6798C4.81036 4.6798 4.8441 4.68653 4.87556 4.69961C4.90703 4.7127 4.93562 4.73188 4.9597 4.75605L10.5867 10.4H1.40642C1.33767 10.4 1.27173 10.3726 1.22312 10.3238C1.17451 10.2751 1.1472 10.209 1.1472 10.14ZM12.8122 10.4H11.3216L8.72943 7.8L10.2089 6.31605C10.233 6.29188 10.2616 6.2727 10.2931 6.25961C10.3245 6.24653 10.3583 6.2398 10.3923 6.2398C10.4264 6.2398 10.4601 6.24653 10.4916 6.25961C10.5231 6.2727 10.5517 6.29188 10.5757 6.31605L13.0714 8.82115V10.14C13.0714 10.209 13.0441 10.2751 12.9955 10.3238C12.9469 10.3726 12.8809 10.4 12.8122 10.4ZM8.4054 3.64C8.4054 3.53715 8.43581 3.43662 8.49277 3.3511C8.54974 3.26559 8.63071 3.19894 8.72544 3.15958C8.82018 3.12022 8.92442 3.10993 9.02499 3.12999C9.12556 3.15006 9.21793 3.19958 9.29044 3.2723C9.36294 3.34503 9.41232 3.43768 9.43232 3.53855C9.45233 3.63942 9.44206 3.74398 9.40282 3.839C9.36358 3.93401 9.29713 4.01523 9.21188 4.07236C9.12662 4.1295 9.02638 4.16 8.92384 4.16C8.78634 4.16 8.65448 4.10521 8.55725 4.0077C8.46002 3.91018 8.4054 3.77791 8.4054 3.64Z" fill="#148C00"/>
</svg>
