<svg width="20" height="20" viewBox="0 0 20 20" fill="none" xmlns="http://www.w3.org/2000/svg">
<path d="M18.2502 18.2502L14.0882 14.0882M14.0882 14.0882C14.8001 13.3762 15.3648 12.531 15.7501 11.6008C16.1354 10.6707 16.3337 9.67369 16.3337 8.66686C16.3337 7.66004 16.1354 6.66307 15.7501 5.73288C15.3648 4.8027 14.8001 3.95751 14.0882 3.24557C13.3762 2.53364 12.531 1.9689 11.6008 1.58361C10.6707 1.19831 9.67369 1 8.66686 1C7.66004 1 6.66307 1.19831 5.73288 1.58361C4.8027 1.9689 3.95751 2.53364 3.24557 3.24557C1.80776 4.68339 1 6.63348 1 8.66686C1 10.7002 1.80776 12.6503 3.24557 14.0882C4.68339 15.526 6.63348 16.3337 8.66686 16.3337C10.7002 16.3337 12.6503 15.526 14.0882 14.0882Z" stroke="black" stroke-width="1.8" stroke-linecap="round" stroke-linejoin="round"/>
</svg>
