<svg width="15" height="15" viewBox="0 0 15 15" fill="none" xmlns="http://www.w3.org/2000/svg">
<path d="M2.1832 2.10419H12.9426V12.8959H2.1832V2.10419Z" stroke="#9B9B9B" stroke-width="0.479167" stroke-linecap="round" stroke-linejoin="round"/>
<path d="M5.23653 2.97919H9.88923V7.06252H5.23653V2.97919ZM5.23653 7.93752H9.88923V12.0209H5.23653V7.93752ZM10.907 5.60419H12.0702V6.77085H10.907V5.60419ZM10.907 3.27085H12.0702V4.43752H10.907V3.27085ZM10.907 8.22919H12.0702V9.39585H10.907V8.22919ZM10.907 10.5625H12.0702V11.7292H10.907V10.5625ZM3.08844 5.60419H4.25161V6.77085H3.08844V5.60419ZM3.08844 3.27085H4.25161V4.43752H3.08844V3.27085ZM3.08844 8.22919H4.25161V9.39585H3.08844V8.22919ZM3.08844 10.5625H4.25161V11.7292H3.08844V10.5625Z" stroke="#9B9B9B" stroke-width="0.479167" stroke-linecap="round" stroke-linejoin="round"/>
</svg>
